<?xml version="1.0" encoding="UTF-8" standalone="no"?>
<!-- Created with Inkscape (http://www.inkscape.org/) -->

<svg
   xmlns:dc="http://purl.org/dc/elements/1.1/"
   xmlns:cc="http://creativecommons.org/ns#"
   xmlns:rdf="http://www.w3.org/1999/02/22-rdf-syntax-ns#"
   xmlns:svg="http://www.w3.org/2000/svg"
   xmlns="http://www.w3.org/2000/svg"
   xmlns:xlink="http://www.w3.org/1999/xlink"
   xmlns:sodipodi="http://sodipodi.sourceforge.net/DTD/sodipodi-0.dtd"
   xmlns:inkscape="http://www.inkscape.org/namespaces/inkscape"
   width="744.09448819"
   height="1052.3622047"
   id="svg2"
   version="1.1"
   inkscape:version="0.48.1 r9760"
   sodipodi:docname="New document 1">
  <defs
     id="defs4" />
  <sodipodi:namedview
     id="base"
     pagecolor="#ffffff"
     bordercolor="#666666"
     borderopacity="1.0"
     inkscape:pageopacity="0.0"
     inkscape:pageshadow="2"
     inkscape:zoom="0.7"
     inkscape:cx="46.646875"
     inkscape:cy="538.72229"
     inkscape:document-units="px"
     inkscape:current-layer="layer1"
     showgrid="false"
     inkscape:window-width="1280"
     inkscape:window-height="1000"
     inkscape:window-x="0"
     inkscape:window-y="24"
     inkscape:window-maximized="1" />
  <metadata
     id="metadata7">
    <rdf:RDF>
      <cc:Work
         rdf:about="">
        <dc:format>image/svg+xml</dc:format>
        <dc:type
           rdf:resource="http://purl.org/dc/dcmitype/StillImage" />
        <dc:title></dc:title>
      </cc:Work>
    </rdf:RDF>
  </metadata>
  <g
     inkscape:label="Layer 1"
     inkscape:groupmode="layer"
     id="layer1"
     style="display:inline">
    <path
       sodipodi:type="star"
       style="fill:#ff00ff;fill-opacity:0"
       id="path2985"
       sodipodi:sides="133"
       sodipodi:cx="137.14285"
       sodipodi:cy="429.50504"
       sodipodi:r1="268.89038"
       sodipodi:r2="163.95619"
       sodipodi:arg1="-2.8837281"
       sodipodi:arg2="-2.8601071"
       inkscape:flatsided="false"
       inkscape:rounded="0"
       inkscape:randomized="0"
       d="m -122.85714,360.93361 102.496487,23.02718 -98.968157,-35.22903 101.294684,27.84183 -97.194074,-39.86344 99.866862,32.59435 -95.203102,-44.40889 98.216186,37.27413 -92.999706,-48.85526 96.3463628,41.87076 -90.5887818,-53.19261 94.2615442,46.37394 -87.9757222,-57.41127 91.9663947,50.77365 -85.1663547,-61.50181 89.4660325,55.06005 -82.1669475,-65.45512 86.7660363,59.22361 -78.9841933,-69.26239 83.872431,63.25501 -75.625195,-72.91509 80.791673,67.14526 -72.097446,-76.4051 77.530638,70.88569 -68.408821,-79.72461 74.096601,74.46794 -64.567548,-82.86623 70.497226,77.88403 -60.582201,-85.82295 66.740545,81.12633 -56.461671,-88.58815 62.834939,84.18759 L -5.0175701,201.26733 53.771553,288.32834 5.919432,194.80853 60.531558,284.54869 17.149245,188.87343 67.462513,281.09249 28.64681,183.47527 74.548952,277.96746 40.386473,178.6261 81.775062,275.18057 52.342037,174.33674 89.12472,272.73804 64.486824,170.61676 96.581525,270.64531 76.793736,167.47446 104.12884,268.90707 89.23531,164.91686 l 22.51451,102.61032 -9.96604,-104.57753 17.64368,103.55907 -5.0163,-104.93149 12.73347,104.27675 -0.0554,-105.05131 7.79485,104.76173 4.90568,-104.93672 2.83885,105.01296 9.85577,-104.58797 -2.12349,105.02986 14.78389,-104.00585 -7.08111,104.81239 19.67901,-103.19165 -12.0229,104.36106 24.53022,-102.14719 -16.93789,103.67684 29.3267,-100.8748 -21.81507,102.7613 34.05773,-99.37732 -26.64357,101.61644 38.71277,-97.65809 -31.41262,100.24484 43.28143,-95.72095 -36.11158,98.64956 47.7535,-93.57021 -40.72996,96.83414 52.11902,-91.21068 -45.25745,94.80266 56.36825,-88.64763 -49.68396,92.55963 60.49168,-85.88676 -53.9996,90.11006 64.48015,-82.93425 -58.19475,87.45942 68.32474,-79.79668 -62.26005,84.61363 72.01686,-76.48106 -66.18642,81.57904 75.54829,-72.99478 -69.9651,78.36241 78.91113,-69.34562 -73.58765,74.97092 82.0979,-65.54172 -77.04601,71.41214 85.10147,-61.59156 -80.33245,67.69401 87.91515,-57.50398 -83.43963,63.82483 90.53266,-53.28808 -86.36063,59.81323 92.94814,-48.95327 -89.08892,55.66817 95.15624,-44.50924 -91.61842,51.39889 97.15199,-39.96588 -93.94349,47.01492 98.93097,-35.33334 -96.05893,42.52603 100.48918,-30.62196 -97.96002,37.94226 101.82318,-25.84225 -99.64253,33.27382 102.92995,-21.00488 -101.10269,28.53113 103.80706,-16.12063 -102.33726,23.72479 104.45253,-11.20043 -103.34348,18.86551 104.86493,-6.25522 -104.11908,13.96412 105.04332,-1.29605 -104.66236,9.03157 104.98733,3.666 -104.9721,4.07888 104.69707,8.61988 -105.04761,-0.88292 104.1732,13.55453 -104.88872,-5.84275 103.41687,18.45892 -104.49577,-10.78954 102.42978,23.32213 -103.86966,-15.71226 101.21412,28.1333 -103.01177,-20.59991 99.77262,32.88168 -101.92402,-25.4416 98.10848,37.55671 -100.60883,-30.22652 96.22543,42.14792 -99.06916,-34.94399 94.12766,46.64509 -97.30842,-39.58348 91.81986,51.03817 -95.33055,-44.13466 89.30717,55.31737 -93.13996,-48.58735 86.5952,59.47313 -90.74153,-52.93162 83.69,63.49618 -88.14062,-57.15777 80.59805,67.37755 -85.34304,-61.2564 77.32626,71.10858 -82.35502,-65.21833 73.88193,74.68093 -79.18325,-69.03474 70.27274,78.08664 -75.83477,-72.6971 66.50673,81.31811 -72.31708,-76.19724 62.59233,84.36812 -68.63803,-79.52736 58.53827,87.22988 -64.80582,-82.68002 54.35357,89.89699 -60.829,-85.64819 50.0476,92.36351 -56.71645,-88.42525 45.62995,94.62393 -52.47734,-91.005 41.11048,96.67321 -48.12113,-93.38168 36.49927,98.50677 -43.65754,-95.54998 31.80662,100.12052 -39.09654,-97.50508 27.043,101.51087 -34.4483,-99.24261 22.21904,102.67471 -29.72319,-100.75869 17.3455,103.60944 -24.93176,-102.04993 12.43325,104.31296 -20.0847,-103.11346 7.49326,104.78374 -15.19281,-103.94691 2.53654,105.0207 -10.26703,-104.5484 -2.42582,105.02331 -5.31834,-104.91662 -7.38279,104.79158 -0.35777,-105.05071 -12.32327,104.32602 4.60358,-104.95041 -17.23626,103.62766 9.55467,-104.61591 L 90.27626,694.27958 104.7607,590.2316 77.824723,691.77092 97.206605,588.52305 65.505549,688.67705 89.741628,586.45967 53.346225,685.00486 82.382421,584.04606 41.373884,680.76256 75.145406,581.28761 29.615241,675.95959 68.046732,578.19047 18.096535,670.6067 61.102238,574.76156 6.8434672,664.71581 54.32742,571.00852 -4.1188516,658.30007 47.737396,566.93974 -14.76596,651.3738 l 56.112831,-88.80952 -66.420972,81.38818 60.244205,-86.06054 -70.190376,78.16068 64.24115,-83.11953 -73.803158,74.75878 68.094748,-79.99304 -77.251257,71.19006 71.796401,-76.68806 -80.526977,67.46249 75.337846,-73.21195 -83.62301,63.58437 78.7111847,-69.57248 -86.5324477,59.56439 81.908887,-65.77777 -89.248798,55.41149 84.92381924,-61.83629 -91.76599924,51.13495 87.749253,-57.75682 -94.078435,46.7443 90.3788844,-53.54847 -96.1809394,42.24934 92.806839,-49.22063 -98.068839,37.66011 95.027719,-44.78296 -99.737899,32.98685 97.036544,-40.24537 -101.184404,28.23998 98.828843,-35.61797 -102.405133,23.4301 100.400621,-30.9111 -103.397351,18.56793 101.748361,-26.13525 -104.158851,13.66434 102.869064,-21.30109 -104.687934,8.73026 103.760226,-16.41939 -104.983416,3.77669 104.419858,-11.50106 -105.044638,-1.18531 104.846488,-6.55705 -104.871468,-6.14466 105.039167,-1.59842 -104.464277,-11.0903 104.997452,3.36378 -103.824002,-16.01119 104.721463,8.31846 -102.952043,-20.89635 104.211786,13.25459 -101.850366,-25.73489 103.469582,18.16115 z"
       inkscape:transform-center-x="8.0262179"
       inkscape:transform-center-y="23.581077" />
    <path
       sodipodi:type="star"
       style="fill:#ff00ff;fill-opacity:0"
       id="path2987"
       sodipodi:sides="133"
       sodipodi:cx="408.57144"
       sodipodi:cy="235.21933"
       sodipodi:r1="243.32729"
       sodipodi:r2="148.36906"
       sodipodi:arg1="1.2973353"
       sodipodi:arg2="1.3209563"
       inkscape:flatsided="false"
       inkscape:rounded="0"
       inkscape:randomized="0"
       d="m 474.28574,469.50505 -29.0302,-90.52322 17.89287,93.36515 -24.7229,-91.79316 13.4638,94.10596 -20.36045,-92.85827 9.00468,94.63679 -15.95255,-93.71618 4.52546,94.95645 -11.50906,-94.36497 0.0361,95.06421 -7.03988,-94.8032 -4.45325,94.95986 -2.555,-95.02988 -8.9327,94.64361 1.93558,-95.04451 -13.39223,94.11617 6.42184,-94.84706 -17.82186,93.37873 10.89377,-94.43798 -22.21174,92.43292 15.3414,-93.81816 -26.55205,91.28085 19.75479,-92.989 -30.83311,89.92511 24.12411,-91.95234 -35.04537,88.3687 28.43958,-90.71051 -39.17943,86.61512 32.6916,-89.26626 -43.22607,84.66825 36.87068,-87.62282 -47.17625,82.53246 40.96748,-85.78386 -51.02116,80.21251 44.97286,-83.75349 -54.75223,77.71357 48.87791,-81.53623 -58.36113,75.04122 52.67387,-79.13703 -61.83978,72.20144 56.3523,-76.56125 -65.18047,69.20053 59.90499,-73.81462 -68.37569,66.04521 63.32401,-70.90328 -71.41836,62.74252 66.60172,-67.83374 -74.30166,59.29983 69.73083,-64.61283 -77.01916,55.72481 72.70433,-61.24774 -79.5648,52.02546 75.51561,-57.74599 -81.9329,48.21001 78.15837,-54.11538 -84.11818,44.28699 80.62674,-50.36402 -86.11576,40.26515 82.9152,-46.50028 -87.92118,36.15346 85.01864,-42.53278 -89.53041,31.96109 86.93237,-38.47036 -90.93987,27.69741 88.65212,-34.32212 -92.1464,23.37193 90.17406,-30.09728 -93.14732,18.9943 91.49477,-25.80528 -93.94039,14.57427 92.61134,-21.4557 -94.52385,10.12173 93.52124,-17.05825 -94.89637,5.64661 94.22246,-12.62273 -95.05715,1.15888 94.71344,-8.15905 -95.00583,-3.33143 94.99308,-3.67715 -94.74251,-7.81432 95.06074,0.81295 -94.26777,-12.27976 94.91629,5.30123 -93.5827,-16.7178 94.56006,9.77768 -92.6888,-21.11854 93.9928,14.23232 -91.58808,-25.47215 93.21583,18.65519 -90.28299,-29.76892 92.23085,23.03644 -88.77644,-33.99927 91.04006,27.36629 -87.07179,-38.15376 89.64613,31.63507 -85.17286,-42.2231 88.05216,35.83326 -83.08387,-46.19823 86.26172,39.95149 -80.80949,-50.07027 84.27879,43.98058 -78.35479,-53.8306 82.10781,47.91153 -75.72525,-57.470795 79.7536,51.735565 L 216.2804,86.114255 293.50184,141.55842 223.53634,77.199777 298.0533,136.22882 231.20516,68.637903 302.85138,131.12011 239.26976,60.447737 307.88535,126.24368 247.71214,52.647554 313.144,121.61043 256.51346,45.254761 318.61559,117.23067 265.65408,38.285853 324.28789,113.1142 275.1136,31.75638 l 55.03467,77.51381 -45.27735,-83.589277 51.31273,80.026307 -41.27939,-85.634212 47.47628,82.360242 -37.1893,-87.488071 43.5339,84.510388 -33.01624,-89.1467 39.49437,86.471964 L 326.43377,6.1744184 361.8005,94.415005 337.34193,2.5510587 368.50208,92.363369 348.40902,-0.55312712 375.29308,90.6305 359.61037,-3.1312124 382.15833,89.220266 370.92096,-5.1774444 389.08252,88.135812 382.31556,-6.6872572 396.0502,87.379559 393.76876,-7.6572819 403.04582,86.953195 405.25498,-8.0853538 410.05376,86.85767 416.7486,-7.9705179 417.0584,87.093199 428.22398,-7.3130303 424.04411,87.659254 439.65551,-6.1143581 430.99528,88.554574 451.01767,-4.3771762 437.89642,89.77716 462.28512,-2.1053608 444.73213,91.324285 473.43271,0.69601887 451.48715,93.192496 484.43558,4.0207117 458.1464,95.377624 495.26916,7.8612991 464.69503,97.874793 505.90928,12.209211 471.11843,100.67843 516.33221,17.054746 477.40227,103.78228 526.51467,22.387091 483.53251,107.17942 536.43397,28.194348 489.49549,110.86227 546.06795,34.463559 495.27789,114.82261 555.39512,41.180735 500.86682,119.0516 564.39467,48.330886 506.2498,123.5398 573.04652,55.898059 511.41482,128.2772 581.33136,63.865368 516.35036,133.25324 589.2307,72.215034 521.0454,138.4568 596.72692,80.928427 525.48947,143.87627 603.8033,89.986103 529.67265,149.49957 610.44403,99.367851 533.5856,155.31414 l 83.04871,-46.2614 -79.41471,52.25428 85.14072,-42.28787 -81.79378,48.44566 87.04275,-38.21996 -83.99035,44.52895 88.75055,-34.06678 -85.99949,40.51288 90.26031,-29.83758 -87.81674,36.4064 91.56868,-25.5418 -89.43804,32.21868 92.67271,-21.18902 -90.85976,27.95908 93.56996,-16.78897 -92.07874,23.63709 94.25841,-12.35145 -93.09226,19.26235 94.73654,-7.88637 -93.89805,14.84463 95.00327,-3.40369 -94.49431,10.39378 95.05801,1.08659 -94.87973,5.91974 94.90064,5.57443 -95.05343,1.43251 94.53152,10.04984 -95.01503,-3.05794 93.95145,14.50282 -94.76461,-7.54156 93.16174,18.92345 -94.30274,-12.00835 92.16415,23.30184 -93.63043,-16.44834 90.9609,27.62825 -92.74921,-20.85164 89.5547,31.893 -91.66102,-25.2084 87.94865,36.08658 -90.36831,-29.50891 86.14636,40.19964 -88.87394,-33.74358 84.15184,44.22301 -87.18126,-37.90296 81.96954,48.14769 -85.29405,-41.97775 79.60435,51.96493 -83.21651,-45.95887 77.06152,55.66622 -80.95329,-49.83745 74.34673,59.24331 -78.50942,-53.60483 71.46606,62.68819 -75.89037,-57.25257 68.4259,65.99319 -73.10198,-60.77258 65.23308,69.15094 -70.15048,-64.15698 61.89469,72.15438 -67.04243,-67.39821 58.41817,74.99682 -63.78479,-70.48906 54.81132,77.67191 -60.38482,-73.42261 51.08216,80.17369 -56.85011,-76.19234 47.239,82.49657 -53.18854,-78.79204 43.29045,84.63535 -49.40829,-81.21593 39.2453,86.5853 -45.51779,-83.4586 35.11256,88.34203 -41.52572,-85.51503 30.90149,89.90163 -37.44099,-87.38065 26.62146,91.26064 -33.27272,-89.05129 z"
       inkscape:transform-center-x="0.028711103"
       inkscape:transform-center-y="0.0052288336" />
    <path
       sodipodi:type="star"
       style="fill:#ff00ff;fill-opacity:0"
       id="path2989"
       sodipodi:sides="133"
       sodipodi:cx="217.14285"
       sodipodi:cy="329.50504"
       sodipodi:r1="200.0204"
       sodipodi:r2="164.17886"
       sodipodi:arg1="0.79549883"
       sodipodi:arg2="0.63059315"
       inkscape:flatsided="false"
       inkscape:rounded="0"
       inkscape:randomized="0"
       d="m 357.14285,472.36217 -7.39636,-46.05335 0.49382,52.50539 -5.21326,-46.35126 -1.98628,52.47012 -3.01853,-46.54573 -4.46193,52.31778 -0.81707,-46.63635 -6.92763,52.0487 1.38622,-46.62291 -9.37788,51.66348 3.58642,-46.50543 -11.80719,51.16297 5.7786,-46.28418 -14.21015,50.5483 7.9579,-45.95964 -16.58142,49.82084 10.11944,-45.53256 -18.91568,48.9822 12.2584,-45.00387 -21.20773,48.03427 14.37,-44.37477 -23.45246,46.97916 16.44955,-43.64665 -25.64486,45.81922 18.49238,-42.82113 -27.78003,44.55703 20.49395,-41.90006 -29.85322,43.19543 22.44979,-40.8855 -31.85979,41.73743 24.35554,-39.77971 -33.79527,40.18631 26.20694,-38.58515 -35.65534,38.54551 27.99986,-37.30449 -37.43585,36.8187 29.73031,-35.94059 -39.13283,35.00973 31.39441,-34.4965 -40.74247,33.12265 32.98845,-32.97543 -42.26121,31.16166 34.50889,-31.38078 -43.68566,29.13113 35.95234,-29.7161 -45.01262,27.03559 37.31555,-27.98512 -46.23914,24.87974 38.5955,-26.19169 -47.36248,22.66836 39.78932,-24.33982 -48.38014,20.4064 40.89437,-22.43363 -49.28984,18.09891 41.90815,-20.47739 -50.08956,15.75103 42.82843,-18.47545 -50.77751,13.36801 43.65315,-16.4323 -51.352159,10.95516 44.380449,-14.35247 -51.812217,8.51786 45.008717,-12.24062 -52.156658,6.06156 45.536558,-10.10145 -52.384721,3.59172 45.962791,-7.93974 -52.495896,1.11388 46.286456,-5.76031 -52.489924,-1.36646 46.506844,-3.56803 -52.366834,-3.84374 46.623454,-1.3678 -52.126889,-6.31244 46.636028,0.8355 -51.770628,-8.76706 46.544541,3.03692 -51.298849,-11.20212 46.349195,5.23157 -50.712601,-13.61217 46.050424,7.41455 -50.013194,-15.99187 45.648899,9.58099 L 30.080738,400.32824 75.22625,412.05428 26.944857,391.41532 71.486245,405.26025 24.233383,382.36426 68.071257,398.29718 21.952365,373.19524 64.988907,391.18061 20.106893,363.92874 62.246071,383.92641 18.701086,354.58542 59.84887,376.55078 17.738079,345.18614 57.802654,369.07018 17.220023,335.75187 56.111988,361.50128 17.148073,326.30366 54.780645,353.861 17.522389,316.8626 53.811596,346.16636 18.342137,307.44974 53.207002,338.43455 19.605486,298.0861 52.968214,330.68281 21.309619,288.79256 53.095763,322.92844 23.450733,279.58987 53.589366,315.18875 26.024049,270.49856 54.44792,307.481 29.023826,261.53892 55.66951,299.8224 32.44337,252.73094 l 24.80804,39.49909 -20.976359,-48.13576 22.91504,40.62657 -18.679773,-49.07266 20.970908,41.6634 -16.341504,-49.90005 18.979981,42.60725 -13.966771,-50.61609 16.946703,43.45602 -11.560873,-51.21919 14.87561,44.20785 -9.129178,-51.708 12.771323,44.86101 -6.677112,-52.08143 10.638539,45.41408 -4.210146,-52.33865 8.482015,45.86581 -1.733787,-52.47907 6.306565,46.21519 0.746442,-52.5024 4.117043,46.46146 3.225005,-52.40857 1.918334,46.60404 5.696375,-52.1978 -0.28466,46.64264 8.15503,-51.87056 -2.48701,46.57717 10.59548,-51.42757 -4.68381,46.40774 13.0123,-50.86982 -6.87017,46.13478 15.40009,-50.19858 -9.0412,45.75887 17.7535,-49.41531 -11.19204,45.28086 20.0673,-48.52178 -13.31791,44.70179 22.33632,-47.51997 -15.41407,44.02299 24.55551,-46.41214 -17.47584,43.24595 26.7199,-45.20073 -19.4986,42.37242 28.82466,-43.88848 -21.47786,41.40433 30.86511,-42.47827 -23.40919,40.34385 32.83669,-40.97329 -25.2883,39.19335 34.735,-39.37689 -27.11096,37.95541 36.55579,-37.69262 -28.87314,36.63276 38.29502,-35.92423 -30.57089,35.22837 39.9488,-34.0757 -32.20042,33.74538 41.51343,-32.15112 -33.75809,32.18708 42.98543,-30.15481 -35.24045,30.55697 44.36151,-28.0912 -36.64416,28.85866 45.63861,-25.96491 -37.96612,27.09597 46.81387,-23.78069 -39.20335,25.27281 47.88467,-21.54339 -40.3531,23.39325 48.84862,-19.25803 -41.41282,21.4615 49.70357,-16.9297 -42.38011,19.48186 50.4476,-14.56358 -43.25285,17.45874 51.07908,-12.16497 -44.02907,15.39667 51.59658,-9.73922 -44.70706,13.30025 51.99894,-7.29174 -45.28527,11.17415 52.28528,-4.82799 -45.76244,9.02311 52.45494,-2.35345 -46.13749,6.85194 52.50755,0.12632 -46.40959,4.66548 52.443,2.60582 -46.57814,2.4686 52.26144,5.07951 -46.64275,0.26622 51.96325,7.54186 -46.60328,-1.93675 51.54912,9.98738 -46.45983,-4.13541 51.01996,12.41061 -46.2127,-6.32482 50.37695,14.80615 -45.86246,-8.50014 49.62153,17.16866 -45.40987,-10.65649 48.75539,19.49285 -44.85596,-12.78905 47.78046,21.77355 -44.20197,-14.89308 46.69891,24.00566 -43.44933,-16.96387 45.51315,26.1842 -42.59974,-18.99682 44.22583,28.30433 -41.6551,-20.98737 42.83984,30.36128 -40.61751,-22.93109 41.35825,32.35049 -39.48929,-24.82364 39.78437,34.26752 -38.27294,-26.66081 38.12172,36.10808 -36.9712,-28.43848 36.374,37.86807 -35.58696,-30.15269 34.54512,39.54356 -34.12331,-31.79963 32.63916,41.13082 -32.58353,-33.3756 30.66037,42.6263 -30.97103,-34.87711 28.61315,44.02666 -29.28942,-36.30079 26.5021,45.32878 -27.54246,-37.64346 24.3319,46.52975 -25.73404,-38.90213 22.10742,47.62689 -23.8682,-40.07401 19.8336,48.61778 -21.9491,-41.15647 17.51553,49.50016 -19.98102,-42.14707 15.15836,50.27209 -17.96835,-43.04365 12.76738,50.93185 -15.91559,-43.84417 10.34791,51.47796 -13.82732,-44.54685 7.90535,51.90919 -11.7082,-45.15014 5.44515,52.22461 -9.56295,-45.65268 z"
       inkscape:transform-center-x="0.0072353988"
       inkscape:transform-center-y="0.029402687" />
    <use
       id="use2991"
       xlink:href="#path2989"
       x="0"
       y="0"
       width="744.09448"
       height="1052.3622"
       transform="translate(156.63206,-35.240522)" />
    <use
       id="use2993"
       xlink:href="#path2989"
       x="0"
       y="0"
       width="744.09448"
       height="1052.3622"
       transform="translate(192.1026,39.464661)" />
    <use
       id="use2995"
       xlink:href="#path2989"
       x="0"
       y="0"
       width="744.09448"
       height="1052.3622"
       transform="translate(154.77312,-60.25033)" />
    <use
       id="use2997"
       xlink:href="#path2989"
       x="0"
       y="0"
       width="744.09448"
       height="1052.3622"
       transform="translate(192.88058,50.084484)" />
    <use
       id="use2999"
       xlink:href="#path2989"
       x="0"
       y="0"
       width="744.09448"
       height="1052.3622"
       transform="translate(131.7998,-104.24911)" />
    <use
       id="use3001"
       xlink:href="#path2989"
       x="0"
       y="0"
       width="744.09448"
       height="1052.3622"
       transform="translate(99.458391,-37.9571)" />
    <use
       id="use3003"
       xlink:href="#path2989"
       x="0"
       y="0"
       width="744.09448"
       height="1052.3622"
       transform="translate(37.359141,-107.85304)" />
    <use
       id="use3005"
       xlink:href="#path2989"
       x="0"
       y="0"
       width="744.09448"
       height="1052.3622"
       transform="translate(71.003942,-8.0051594)" />
    <use
       id="use3007"
       xlink:href="#path2989"
       x="0"
       y="0"
       width="744.09448"
       height="1052.3622"
       transform="translate(61.642693,-104.46927)" />
    <use
       id="use3009"
       xlink:href="#path2989"
       x="0"
       y="0"
       width="744.09448"
       height="1052.3622"
       transform="translate(-44.71379,-135.36288)" />
    <use
       id="use3011"
       xlink:href="#path2989"
       x="0"
       y="0"
       width="744.09448"
       height="1052.3622"
       transform="translate(-164.8202,-95.035698)" />
    <use
       id="use3013"
       xlink:href="#path2989"
       x="0"
       y="0"
       width="744.09448"
       height="1052.3622"
       transform="translate(-246.32372,-104.3429)" />
    <use
       id="use3015"
       xlink:href="#path2989"
       x="0"
       y="0"
       width="744.09448"
       height="1052.3622"
       transform="translate(-354.06493,-63.863305)" />
    <use
       id="use3017"
       xlink:href="#path2989"
       x="0"
       y="0"
       width="744.09448"
       height="1052.3622"
       transform="translate(-340.63484,-101.88572)" />
    <use
       id="use3019"
       xlink:href="#path2989"
       x="0"
       y="0"
       width="744.09448"
       height="1052.3622"
       transform="translate(-424.79794,-117.79868)" />
    <use
       id="use3021"
       xlink:href="#path2989"
       x="0"
       y="0"
       width="744.09448"
       height="1052.3622"
       transform="translate(-328.84068,-61.278226)" />
    <use
       id="use3023"
       xlink:href="#path2989"
       x="0"
       y="0"
       width="744.09448"
       height="1052.3622"
       transform="translate(-326.15843,-87.794179)" />
    <use
       id="use3025"
       xlink:href="#path2989"
       x="0"
       y="0"
       width="744.09448"
       height="1052.3622"
       transform="translate(-88.106132,-63.793334)" />
    <use
       id="use3027"
       xlink:href="#path2989"
       x="0"
       y="0"
       width="744.09448"
       height="1052.3622"
       transform="translate(32.310698,-140.61215)" />
    <use
       id="use3029"
       xlink:href="#path2989"
       x="0"
       y="0"
       width="744.09448"
       height="1052.3622"
       transform="translate(253.47976,-186.84191)" />
    <use
       id="use3031"
       xlink:href="#path2989"
       x="0"
       y="0"
       width="744.09448"
       height="1052.3622"
       transform="translate(262.23098,-150.08387)" />
    <use
       id="use3033"
       xlink:href="#path2989"
       x="0"
       y="0"
       width="744.09448"
       height="1052.3622"
       transform="translate(335.12355,-246.11885)" />
    <use
       id="use3035"
       xlink:href="#path2989"
       x="0"
       y="0"
       width="744.09448"
       height="1052.3622"
       transform="translate(229.8829,-196.17641)" />
    <use
       id="use3037"
       xlink:href="#path2989"
       x="0"
       y="0"
       width="744.09448"
       height="1052.3622"
       transform="translate(151.79118,-168.51962)" />
    <use
       id="use3039"
       xlink:href="#path2989"
       x="0"
       y="0"
       width="744.09448"
       height="1052.3622"
       transform="translate(40.656418,-76.553819)" />
    <use
       id="use3041"
       xlink:href="#path2989"
       x="0"
       y="0"
       width="744.09448"
       height="1052.3622"
       transform="translate(14.416056,-169.41553)" />
    <use
       id="use3043"
       xlink:href="#path2989"
       x="0"
       y="0"
       width="744.09448"
       height="1052.3622"
       transform="translate(20.846866,-65.80676)" />
    <use
       id="use3045"
       xlink:href="#path2989"
       x="0"
       y="0"
       width="744.09448"
       height="1052.3622"
       transform="translate(113.14066,-162.42362)" />
    <use
       id="use3047"
       xlink:href="#path2989"
       x="0"
       y="0"
       width="744.09448"
       height="1052.3622"
       transform="translate(88.912263,-77.866512)" />
    <use
       id="use3049"
       xlink:href="#path2989"
       x="0"
       y="0"
       width="744.09448"
       height="1052.3622"
       transform="translate(197.4225,-41.315933)" />
    <use
       id="use3051"
       xlink:href="#path2989"
       x="0"
       y="0"
       width="744.09448"
       height="1052.3622"
       transform="translate(-98.300373,185.30833)" />
    <use
       id="use3053"
       xlink:href="#path2989"
       x="0"
       y="0"
       width="744.09448"
       height="1052.3622"
       transform="translate(-107.33952,241.58357)" />
    <use
       id="use3055"
       xlink:href="#path2989"
       x="0"
       y="0"
       width="744.09448"
       height="1052.3622"
       transform="translate(-186.83132,295.1157)" />
    <use
       id="use3057"
       xlink:href="#path2989"
       x="0"
       y="0"
       width="744.09448"
       height="1052.3622"
       transform="translate(-91.616023,170.8815)" />
    <use
       id="use3059"
       xlink:href="#path2989"
       x="0"
       y="0"
       width="744.09448"
       height="1052.3622"
       transform="translate(-92.033123,313.66813)" />
    <use
       id="use3061"
       xlink:href="#path2989"
       x="0"
       y="0"
       width="744.09448"
       height="1052.3622"
       transform="translate(15.662871,281.80687)" />
    <use
       id="use3063"
       xlink:href="#path2989"
       x="0"
       y="0"
       width="744.09448"
       height="1052.3622"
       transform="translate(-46.949906,320.49296)" />
    <use
       id="use3065"
       xlink:href="#path2989"
       x="0"
       y="0"
       width="744.09448"
       height="1052.3622"
       transform="translate(172.85108,198.54011)" />
    <use
       id="use3067"
       xlink:href="#path2989"
       x="0"
       y="0"
       width="744.09448"
       height="1052.3622"
       transform="translate(171.97476,148.09994)" />
    <use
       id="use3069"
       xlink:href="#path2989"
       x="0"
       y="0"
       width="744.09448"
       height="1052.3622"
       transform="translate(154.08095,219.56583)" />
    <use
       id="use3071"
       xlink:href="#path2989"
       x="0"
       y="0"
       width="744.09448"
       height="1052.3622"
       transform="translate(197.32781,214.28944)" />
    <use
       id="use3073"
       xlink:href="#path2989"
       x="0"
       y="0"
       width="744.09448"
       height="1052.3622"
       transform="translate(60.619098,290.60515)" />
    <use
       id="use3075"
       xlink:href="#path2989"
       x="0"
       y="0"
       width="744.09448"
       height="1052.3622"
       transform="translate(1.2888625,252.58356)" />
    <use
       id="use3077"
       xlink:href="#path2989"
       x="0"
       y="0"
       width="744.09448"
       height="1052.3622"
       transform="translate(83.250123,224.78118)" />
    <use
       id="use3079"
       xlink:href="#path2989"
       x="0"
       y="0"
       width="744.09448"
       height="1052.3622"
       transform="translate(290.16687,93.525063)" />
    <use
       id="use3081"
       xlink:href="#path2989"
       x="0"
       y="0"
       width="744.09448"
       height="1052.3622"
       transform="translate(264.95727,79.660859)" />
    <use
       id="use3083"
       xlink:href="#path2989"
       x="0"
       y="0"
       width="744.09448"
       height="1052.3622"
       transform="translate(302.92096,101.91865)" />
    <use
       id="use3085"
       xlink:href="#path2989"
       x="0"
       y="0"
       width="744.09448"
       height="1052.3622"
       transform="translate(426.2868,-69.317436)" />
    <use
       id="use3087"
       xlink:href="#path2989"
       x="0"
       y="0"
       width="744.09448"
       height="1052.3622"
       transform="translate(446.36852,-62.063273)" />
    <use
       id="use3089"
       xlink:href="#path2989"
       x="0"
       y="0"
       width="744.09448"
       height="1052.3622"
       transform="translate(309.56327,66.823847)" />
    <use
       id="use3091"
       xlink:href="#path2989"
       x="0"
       y="0"
       width="744.09448"
       height="1052.3622"
       transform="translate(230.49837,-80.852352)" />
    <use
       id="use3093"
       xlink:href="#path2989"
       x="0"
       y="0"
       width="744.09448"
       height="1052.3622"
       transform="translate(252.83746,28.69005)" />
    <use
       id="use3095"
       xlink:href="#path2989"
       x="0"
       y="0"
       width="744.09448"
       height="1052.3622"
       transform="translate(120.91056,-223.12267)" />
    <use
       id="use3097"
       xlink:href="#path2989"
       x="0"
       y="0"
       width="744.09448"
       height="1052.3622"
       transform="translate(-26.53828,-144.45117)" />
    <path
       sodipodi:type="star"
       style="fill:#ff00ff;fill-opacity:0"
       id="path3099"
       sodipodi:sides="133"
       sodipodi:cx="359.61432"
       sodipodi:cy="478.59555"
       sodipodi:r1="37.389294"
       sodipodi:r2="49.332695"
       sodipodi:arg1="-0.90027477"
       sodipodi:arg2="-1.0047207"
       inkscape:flatsided="false"
       inkscape:rounded="0"
       inkscape:randomized="0"
       d="m 382.84783,449.30113 3.2248,-12.34298 -1.86731,13.47285 3.80409,-12.17691 -2.50147,13.36963 4.37489,-11.98368 -3.13005,13.23658 4.93593,-11.76371 -3.75165,13.074 5.48596,-11.51748 -4.36487,12.88224 6.02374,-11.24556 -4.96836,12.66174 6.54809,-10.94855 -5.56076,12.41299 7.05782,-10.62711 -6.14075,12.13654 7.55181,-10.28195 -6.70705,11.833 8.02894,-9.91385 -7.25837,11.50307 8.48817,-9.52363 -7.7935,11.14746 8.92844,-9.11215 -8.31124,10.76698 9.3488,-8.68034 -8.81043,10.36246 9.74829,-8.22916 -9.28996,9.93484 10.12603,-7.75963 -9.74876,9.48505 10.48117,-7.27278 -10.1858,9.01408 10.81293,-6.76969 -10.60013,8.52301 11.12056,-6.25151 -10.99079,8.01291 11.40338,-5.71936 -11.35694,7.48493 11.66075,-5.17446 -11.69774,6.94026 11.8921,-4.61803 -12.01244,6.3801 12.09692,-4.05127 -12.30033,5.8057 12.27474,-3.47548 -12.56078,5.21835 12.42518,-2.89194 -12.79321,4.61935 12.54789,-2.30194 -12.99708,4.01004 12.64259,-1.7068 -13.17194,3.39179 12.70909,-1.10786 -13.31743,2.76597 12.74723,-0.50645 -13.43319,2.13397 12.75692,0.0961 -13.51897,1.49722 12.73815,0.69843 -13.5746,0.85713 12.69095,1.2992 -13.59993,0.21512 12.61545,1.89707 -13.59492,-0.42737 12.51178,2.49071 -13.55957,-1.0689 12.3802,3.0788 -13.49396,-1.70806 12.22099,3.66001 -13.39824,-2.3434 12.03451,4.23306 -13.27262,-2.97351 11.82118,4.79666 -13.1174,-3.59698 11.58148,5.34955 -12.9329,-4.21243 11.31592,5.89051 -12.71954,-4.81847 11.02513,6.41833 -12.4778,-5.41378 10.70972,6.93182 -12.20821,-5.99699 10.37041,7.42985 -11.91138,-6.56682 10.00798,7.91129 -11.58799,-7.12201 9.62321,8.3751 -11.23872,-7.6613 9.21696,8.8202 -10.86439,-8.1835 8.79015,9.24563 -10.4658,-8.68743 8.34372,9.65042 -10.04386,-9.17198 7.87868,10.03368 -9.59952,-9.63606 7.39605,10.39455 -9.13375,-10.07864 6.89692,10.73223 -8.6476,-10.49873 6.38241,11.04596 -8.14216,-10.8954 5.85365,11.33504 -7.61855,-11.26775 5.31183,11.59883 -7.07793,-11.61496 4.75815,11.83673 -6.52153,-11.93625 4.19386,12.04823 -5.95057,-12.23091 3.62021,12.23284 -5.36633,-12.49827 3.03848,12.39015 -4.77012,-12.73775 2.44998,12.51982 -4.16327,-12.94881 1.856,12.62155 -3.54712,-13.13097 1.25789,12.69512 -2.92306,-13.28383 0.65696,12.74036 -2.29248,-13.40705 0.0546,12.75717 -1.65678,-13.50035 -0.54794,12.74551 -1.01738,-13.56353 -1.14923,12.70541 -0.37572,-13.59644 -1.74795,12.63697 0.26678,-13.59902 -2.34277,12.54032 0.90869,-13.57124 -2.93237,12.4157 1.54857,-13.51319 -3.51542,12.26336 2.185,-13.42498 -4.09064,12.08366 2.81655,-13.30682 -4.65671,11.87701 3.44181,-13.15896 -5.2124,11.64384 4.0594,-12.98174 -5.75647,11.3847 4.66793,-12.77556 -6.28768,11.10016 5.26604,-12.54087 -6.80486,10.79084 5.85239,-12.27818 -7.30685,10.45744 6.42569,-11.98811 -7.79255,10.10071 6.98466,-11.67129 -8.26086,9.72145 7.52803,-11.32842 -8.71073,9.32049 8.05461,-10.96028 -9.14116,8.89873 8.56322,-10.56767 -9.55121,8.45711 9.05272,-10.15148 -9.93993,7.99662 9.52201,-9.71265 -10.30647,7.5183 9.97006,-9.25214 -10.65002,7.02319 10.39587,-8.77099 -10.96981,6.51241 10.79847,-8.27026 -11.26511,5.9871 11.17698,-7.75108 -11.53528,5.44843 11.53056,-7.21461 -11.77972,4.89761 11.8584,-6.66204 -11.99786,4.33586 12.15978,-6.0946 -12.18923,3.76443 12.43402,-5.51356 -12.3534,3.1846 12.68053,-4.92022 -12.49001,2.59766 12.89873,-4.3159 -12.59875,2.00493 13.08816,-3.70195 -12.67938,1.40773 13.24839,-3.07974 -12.73171,0.80738 13.37903,-2.45066 -12.75563,0.20523 13.47984,-1.8161 -12.75109,-0.39738 13.55057,-1.1775 -12.7181,-0.99909 13.59105,-0.53627 -12.65673,-1.59859 13.60122,0.10616 -12.56711,-2.19451 13.58102,0.74835 -12.44946,-2.78553 13.53054,1.38887 -12.30403,-3.37035 13.44986,2.0263 -12.13114,-3.94764 13.33916,2.65919 -11.93118,-4.51611 13.19869,3.28616 -11.70459,-5.07452 13.02878,3.90579 -11.45189,-5.6216 12.82979,4.51671 -11.17363,-6.15614 12.60218,5.11756 -10.87045,-6.67694 12.34644,5.70698 -10.54301,-7.18285 12.06317,6.28367 -10.19204,-7.67272 11.75296,6.84633 -9.81833,-8.14547 11.41654,7.39372 -9.42271,-8.60005 11.05463,7.92461 -9.00606,-9.03543 10.66806,8.43781 -8.56932,-9.45065 10.25769,8.93219 -8.11346,-9.8448 9.82443,9.40665 -7.63949,-10.21697 9.36924,9.8601 -7.14848,-10.56634 8.89316,10.29156 -6.64152,-10.89213 8.39722,10.70005 -6.11973,-11.19362 7.88255,11.08466 -5.58429,-11.47013 7.35028,11.44455 -5.03639,-11.72105 6.80163,11.77889 -4.47726,-11.94582 6.23779,12.08695 -3.90812,-12.14392 5.66002,12.36804 -3.33027,-12.31493 5.06964,12.62154 -2.745,-12.45846 4.46794,12.84686 -2.15358,-12.57419 3.85626,13.04352 -1.55737,-12.66186 3.23599,13.21108 -0.95769,-12.72129 2.6085,13.34917 -0.35587,-12.75232 1.97518,13.45745 0.24675,-12.7549 1.33746,13.53572 0.84882,-12.72901 0.69675,13.58377 1.44899,-12.67472 0.0545,13.60152 2.04594,-12.59216 -0.58791,13.58892 2.63831,-12.48149 z"
       inkscape:transform-center-x="-0.0013549784"
       inkscape:transform-center-y="-0.0002056229"
       transform="matrix(1.0511944,0,0,1.020479,-15.884838,-10.811177)" />
    <path
       sodipodi:type="star"
       style="fill:#ff00ff;fill-opacity:1"
       id="path3101"
       sodipodi:sides="23"
       sodipodi:cx="131.42857"
       sodipodi:cy="155.21933"
       sodipodi:r1="127.04402"
       sodipodi:r2="110.08038"
       sodipodi:arg1="0.7722884"
       sodipodi:arg2="0.90887938"
       inkscape:flatsided="false"
       inkscape:rounded="0"
       inkscape:randomized="0"
       d="m 222.43221,243.86763 -23.34492,-1.81519 -3.94677,23.08036 -21.98949,-8.04626 -10.02742,21.15965 -19.00321,-13.68058 -15.36438,17.66963 -14.60754,-18.30028 -19.561836,12.86914 -9.128494,-21.56272 -22.308485,7.11419 -2.972434,-23.22595 -23.40061,0.83162 3.404077,-23.16662 -22.75722,-5.51263 9.528125,-21.38913 L 6.5255723,178.44483 21.471087,160.41952 4.8911504,143.88514 24.145615,130.56051 12.64143,110.16605 l 22.135399,-7.63572 -5.57522,-22.74197 23.374651,-1.38051 0.767235,-23.40281 22.880312,4.977088 7.052786,-22.327972 20.689047,10.965558 12.81526,-19.597172 16.96337,16.140764 17.62729,-15.412939 11.9796,20.118883 21.13199,-10.085599 6.10734,22.604876 23.06942,-4.010255 -0.21785,23.414368 23.29589,2.36251 -6.52689,22.48733 21.79462,8.56005 -12.35186,19.8925 18.67694,14.12275 -17.26076,15.82234 14.17408,18.63801 -20.8895,10.57871 8.61999,21.77099 -22.96896,4.5505 z"
       inkscape:transform-center-x="0.02432449"
       inkscape:transform-center-y="-0.00067193771"
       transform="matrix(1.1326184,0,0,1.1326184,101.07994,67.952245)" />
    <text
       xml:space="preserve"
       style="font-size:45.30473328px;font-style:normal;font-variant:normal;font-weight:normal;font-stretch:normal;text-align:start;line-height:100%;letter-spacing:0px;word-spacing:0px;writing-mode:lr-tb;text-anchor:start;fill:#ffffff;fill-opacity:1;stroke:none;font-family:Trebuchet MS;-inkscape-font-specification:Trebuchet MS"
       x="239.56732"
       y="102.7313"
       id="text3871"
       sodipodi:linespacing="100%"
       transform="matrix(0.95429794,0.29885688,-0.29885688,0.95429794,0,0)"
       inkscape:transform-center-y="9.7081556"><tspan
         sodipodi:role="line"
         id="tspan3873"
         x="239.56732"
         y="102.7313">HTML 5</tspan><tspan
         sodipodi:role="line"
         x="239.56732"
         y="148.03604"
         id="tspan3875">CSS 3</tspan><tspan
         sodipodi:role="line"
         x="239.56732"
         y="193.34076"
         id="tspan3879">&amp; Silex</tspan><tspan
         sodipodi:role="line"
         x="239.56732"
         y="238.64551"
         id="tspan3883">inside!</tspan></text>
  </g>
</svg>
